<mxfile modified="2023-07-11T10:05:07.297Z" host="app.diagrams.net" agent="Mozilla/5.0 (Macintosh; Intel Mac OS X 10_15_7) AppleWebKit/537.36 (KHTML, like Gecko) Chrome/114.0.0.0 Safari/537.36" etag="34Ha6RFeFzMy-7f07UVo" version="21.1.9" type="github">
  <diagram id="Ht1M8jgEwFfnCIfOTk4-" name="Page-1">
    <mxGraphModel dx="3346" dy="2115" grid="1" gridSize="10" guides="1" tooltips="1" connect="1" arrows="1" fold="1" page="1" pageScale="1" pageWidth="1169" pageHeight="827" math="0" shadow="0">
      <root>
        <mxCell id="0" />
        <mxCell id="1" parent="0" />
        <mxCell id="A4qcPWbdOjmZHpbZ5kHx-2" value="" style="whiteSpace=wrap;html=1;aspect=fixed;" vertex="1" parent="1">
          <mxGeometry x="-60" y="-60" width="700" height="700" as="geometry" />
        </mxCell>
        <mxCell id="A4qcPWbdOjmZHpbZ5kHx-43" style="edgeStyle=orthogonalEdgeStyle;rounded=0;orthogonalLoop=1;jettySize=auto;html=1;exitX=0.25;exitY=1;exitDx=0;exitDy=0;entryX=0.5;entryY=0;entryDx=0;entryDy=0;entryPerimeter=0;" edge="1" parent="A4qcPWbdOjmZHpbZ5kHx-2" source="A4qcPWbdOjmZHpbZ5kHx-38" target="A4qcPWbdOjmZHpbZ5kHx-40">
          <mxGeometry relative="1" as="geometry" />
        </mxCell>
        <mxCell id="A4qcPWbdOjmZHpbZ5kHx-44" style="edgeStyle=orthogonalEdgeStyle;rounded=0;orthogonalLoop=1;jettySize=auto;html=1;exitX=0.5;exitY=1;exitDx=0;exitDy=0;" edge="1" parent="A4qcPWbdOjmZHpbZ5kHx-2" source="A4qcPWbdOjmZHpbZ5kHx-38" target="A4qcPWbdOjmZHpbZ5kHx-41">
          <mxGeometry relative="1" as="geometry" />
        </mxCell>
        <mxCell id="A4qcPWbdOjmZHpbZ5kHx-45" style="edgeStyle=orthogonalEdgeStyle;rounded=0;orthogonalLoop=1;jettySize=auto;html=1;exitX=0.75;exitY=1;exitDx=0;exitDy=0;" edge="1" parent="A4qcPWbdOjmZHpbZ5kHx-2" source="A4qcPWbdOjmZHpbZ5kHx-38" target="A4qcPWbdOjmZHpbZ5kHx-42">
          <mxGeometry relative="1" as="geometry" />
        </mxCell>
        <mxCell id="A4qcPWbdOjmZHpbZ5kHx-38" value="OTEL Collector" style="rounded=0;whiteSpace=wrap;html=1;" vertex="1" parent="A4qcPWbdOjmZHpbZ5kHx-2">
          <mxGeometry x="382.8174030172414" y="43.75490301724139" width="144.82758620689657" height="72.41379310344828" as="geometry" />
        </mxCell>
        <mxCell id="A4qcPWbdOjmZHpbZ5kHx-40" value="Log (Loki)" style="shape=cylinder3;whiteSpace=wrap;html=1;boundedLbl=1;backgroundOutline=1;size=15;" vertex="1" parent="A4qcPWbdOjmZHpbZ5kHx-2">
          <mxGeometry x="251.5625" y="229.6875" width="90.78125" height="120.3125" as="geometry" />
        </mxCell>
        <mxCell id="A4qcPWbdOjmZHpbZ5kHx-41" value="Metrics (Prometheus)" style="shape=cylinder3;whiteSpace=wrap;html=1;boundedLbl=1;backgroundOutline=1;size=15;" vertex="1" parent="A4qcPWbdOjmZHpbZ5kHx-2">
          <mxGeometry x="371.875" y="229.6875" width="101.71875" height="120.3125" as="geometry" />
        </mxCell>
        <mxCell id="A4qcPWbdOjmZHpbZ5kHx-42" value="Trace (Honeycomb)" style="shape=cylinder3;whiteSpace=wrap;html=1;boundedLbl=1;backgroundOutline=1;size=15;" vertex="1" parent="A4qcPWbdOjmZHpbZ5kHx-2">
          <mxGeometry x="514.0625" y="229.6875" width="98.4375" height="120.3125" as="geometry" />
        </mxCell>
        <mxCell id="A4qcPWbdOjmZHpbZ5kHx-31" value="Auth (Keycloak)" style="sketch=0;html=1;dashed=0;whitespace=wrap;fillColor=#2875E2;strokeColor=#ffffff;points=[[0.005,0.63,0],[0.1,0.2,0],[0.9,0.2,0],[0.5,0,0],[0.995,0.63,0],[0.72,0.99,0],[0.5,1,0],[0.28,0.99,0]];verticalLabelPosition=bottom;align=center;verticalAlign=top;shape=mxgraph.kubernetes.icon;prIcon=pod" vertex="1" parent="A4qcPWbdOjmZHpbZ5kHx-2">
          <mxGeometry x="137.265625" y="263.59375" width="54.6875" height="52.5" as="geometry" />
        </mxCell>
        <mxCell id="A4qcPWbdOjmZHpbZ5kHx-46" style="edgeStyle=orthogonalEdgeStyle;rounded=0;orthogonalLoop=1;jettySize=auto;html=1;exitX=0.733;exitY=0.307;exitDx=0;exitDy=0;exitPerimeter=0;" edge="1" parent="A4qcPWbdOjmZHpbZ5kHx-2" source="A4qcPWbdOjmZHpbZ5kHx-3" target="A4qcPWbdOjmZHpbZ5kHx-38">
          <mxGeometry relative="1" as="geometry" />
        </mxCell>
        <mxCell id="A4qcPWbdOjmZHpbZ5kHx-3" value="API (griffin + chrome layer)" style="sketch=0;html=1;dashed=0;whitespace=wrap;fillColor=#2875E2;strokeColor=#ffffff;points=[[0.005,0.63,0,0,0],[0.1,0.2,0,0,0],[0.28,0.99,0,0,0],[0.5,0,0,0,0],[0.5,1,0,0,0],[0.71,0.03,0,0,0],[0.72,0.99,0,0,0],[0.84,0.1,0,0,0],[0.88,0.86,0,0,0],[0.9,0.2,0,0,0],[0.98,0.42,0,0,0],[0.995,0.63,0,0,0]];verticalLabelPosition=bottom;align=center;verticalAlign=top;shape=mxgraph.kubernetes.icon;prIcon=pod" vertex="1" parent="A4qcPWbdOjmZHpbZ5kHx-2">
          <mxGeometry x="137.265625" y="10.9375" width="136.171875" height="98.4375" as="geometry" />
        </mxCell>
        <mxCell id="A4qcPWbdOjmZHpbZ5kHx-37" style="edgeStyle=orthogonalEdgeStyle;rounded=0;orthogonalLoop=1;jettySize=auto;html=1;exitX=0.163;exitY=0.63;exitDx=0;exitDy=0;exitPerimeter=0;entryX=0.005;entryY=0.63;entryDx=0;entryDy=0;entryPerimeter=0;" edge="1" parent="A4qcPWbdOjmZHpbZ5kHx-2" source="A4qcPWbdOjmZHpbZ5kHx-3" target="A4qcPWbdOjmZHpbZ5kHx-31">
          <mxGeometry relative="1" as="geometry" />
        </mxCell>
        <mxCell id="A4qcPWbdOjmZHpbZ5kHx-1" value="Amazon EKS" style="sketch=0;outlineConnect=0;fontColor=#232F3E;gradientColor=none;strokeColor=#ffffff;fillColor=#232F3E;dashed=0;verticalLabelPosition=middle;verticalAlign=bottom;align=center;html=1;whiteSpace=wrap;fontSize=10;fontStyle=1;spacing=3;shape=mxgraph.aws4.productIcon;prIcon=mxgraph.aws4.eks;" vertex="1" parent="A4qcPWbdOjmZHpbZ5kHx-2">
          <mxGeometry x="612.5" width="87.5" height="109.375" as="geometry" />
        </mxCell>
        <mxCell id="A4qcPWbdOjmZHpbZ5kHx-84" value="Metabase" style="sketch=0;html=1;dashed=0;whitespace=wrap;fillColor=#2875E2;strokeColor=#ffffff;points=[[0.005,0.63,0],[0.1,0.2,0],[0.9,0.2,0],[0.5,0,0],[0.995,0.63,0],[0.72,0.99,0],[0.5,1,0],[0.28,0.99,0]];verticalLabelPosition=bottom;align=center;verticalAlign=top;shape=mxgraph.kubernetes.icon;prIcon=pod" vertex="1" parent="A4qcPWbdOjmZHpbZ5kHx-2">
          <mxGeometry x="104.453125" y="390.005" width="120.3125" height="96.25" as="geometry" />
        </mxCell>
        <mxCell id="A4qcPWbdOjmZHpbZ5kHx-25" style="edgeStyle=orthogonalEdgeStyle;rounded=0;orthogonalLoop=1;jettySize=auto;html=1;" edge="1" parent="1" source="A4qcPWbdOjmZHpbZ5kHx-3" target="A4qcPWbdOjmZHpbZ5kHx-13">
          <mxGeometry relative="1" as="geometry">
            <Array as="points">
              <mxPoint x="188" y="-80" />
              <mxPoint x="251" y="-80" />
            </Array>
          </mxGeometry>
        </mxCell>
        <mxCell id="A4qcPWbdOjmZHpbZ5kHx-30" value="" style="edgeStyle=orthogonalEdgeStyle;rounded=0;orthogonalLoop=1;jettySize=auto;html=1;" edge="1" parent="1" source="A4qcPWbdOjmZHpbZ5kHx-3" target="A4qcPWbdOjmZHpbZ5kHx-28">
          <mxGeometry relative="1" as="geometry" />
        </mxCell>
        <mxCell id="A4qcPWbdOjmZHpbZ5kHx-21" value="" style="edgeStyle=orthogonalEdgeStyle;rounded=0;orthogonalLoop=1;jettySize=auto;html=1;" edge="1" parent="1" source="A4qcPWbdOjmZHpbZ5kHx-13" target="A4qcPWbdOjmZHpbZ5kHx-14">
          <mxGeometry relative="1" as="geometry" />
        </mxCell>
        <mxCell id="A4qcPWbdOjmZHpbZ5kHx-23" value="" style="edgeStyle=orthogonalEdgeStyle;rounded=0;orthogonalLoop=1;jettySize=auto;html=1;" edge="1" parent="1" source="A4qcPWbdOjmZHpbZ5kHx-13" target="A4qcPWbdOjmZHpbZ5kHx-15">
          <mxGeometry relative="1" as="geometry">
            <Array as="points">
              <mxPoint x="251" y="-375" />
            </Array>
          </mxGeometry>
        </mxCell>
        <mxCell id="A4qcPWbdOjmZHpbZ5kHx-13" value="" style="outlineConnect=0;dashed=0;verticalLabelPosition=bottom;verticalAlign=top;align=center;html=1;shape=mxgraph.aws3.rds_db_instance;fillColor=#2E73B8;gradientColor=none;" vertex="1" parent="1">
          <mxGeometry x="226" y="-250" width="49.5" height="66" as="geometry" />
        </mxCell>
        <mxCell id="A4qcPWbdOjmZHpbZ5kHx-14" value="" style="outlineConnect=0;dashed=0;verticalLabelPosition=bottom;verticalAlign=top;align=center;html=1;shape=mxgraph.aws3.rds_db_instance_read_replica;fillColor=#2E73B8;gradientColor=none;" vertex="1" parent="1">
          <mxGeometry x="405" y="-250" width="49.5" height="66" as="geometry" />
        </mxCell>
        <mxCell id="A4qcPWbdOjmZHpbZ5kHx-15" value="" style="outlineConnect=0;dashed=0;verticalLabelPosition=bottom;verticalAlign=top;align=center;html=1;shape=mxgraph.aws3.rds_db_instance_standby_multi_az;fillColor=#2E73B8;gradientColor=none;" vertex="1" parent="1">
          <mxGeometry x="289.5" y="-413" width="49.5" height="70" as="geometry" />
        </mxCell>
        <mxCell id="A4qcPWbdOjmZHpbZ5kHx-16" value="Standby Multi AZ Database Production&lt;br&gt;" style="text;html=1;strokeColor=none;fillColor=none;align=center;verticalAlign=middle;whiteSpace=wrap;rounded=0;" vertex="1" parent="1">
          <mxGeometry x="284.25" y="-460" width="60" height="30" as="geometry" />
        </mxCell>
        <mxCell id="A4qcPWbdOjmZHpbZ5kHx-17" value="Production Database" style="text;html=1;strokeColor=none;fillColor=none;align=center;verticalAlign=middle;whiteSpace=wrap;rounded=0;" vertex="1" parent="1">
          <mxGeometry x="220" y="-184" width="60" height="30" as="geometry" />
        </mxCell>
        <mxCell id="A4qcPWbdOjmZHpbZ5kHx-24" value="Production Replica Database" style="text;html=1;align=center;verticalAlign=middle;resizable=0;points=[];autosize=1;strokeColor=none;fillColor=none;" vertex="1" parent="1">
          <mxGeometry x="350" y="-184" width="180" height="30" as="geometry" />
        </mxCell>
        <mxCell id="A4qcPWbdOjmZHpbZ5kHx-28" value="Elasticache (redis)" style="outlineConnect=0;dashed=0;verticalLabelPosition=bottom;verticalAlign=top;align=center;html=1;shape=mxgraph.aws3.elasticache;fillColor=#2E73B8;gradientColor=none;" vertex="1" parent="1">
          <mxGeometry x="80" y="-257.5" width="67.5" height="81" as="geometry" />
        </mxCell>
        <mxCell id="A4qcPWbdOjmZHpbZ5kHx-57" style="edgeStyle=orthogonalEdgeStyle;rounded=0;orthogonalLoop=1;jettySize=auto;html=1;exitX=1;exitY=0.75;exitDx=0;exitDy=0;exitPerimeter=0;" edge="1" parent="1" source="A4qcPWbdOjmZHpbZ5kHx-48" target="A4qcPWbdOjmZHpbZ5kHx-53">
          <mxGeometry relative="1" as="geometry" />
        </mxCell>
        <mxCell id="A4qcPWbdOjmZHpbZ5kHx-62" style="edgeStyle=orthogonalEdgeStyle;rounded=0;orthogonalLoop=1;jettySize=auto;html=1;exitX=0;exitY=0.5;exitDx=0;exitDy=0;exitPerimeter=0;entryX=0.5;entryY=0;entryDx=0;entryDy=0;" edge="1" parent="1" source="A4qcPWbdOjmZHpbZ5kHx-48" target="A4qcPWbdOjmZHpbZ5kHx-61">
          <mxGeometry relative="1" as="geometry" />
        </mxCell>
        <mxCell id="A4qcPWbdOjmZHpbZ5kHx-48" value="Vuiapp" style="outlineConnect=0;dashed=0;verticalLabelPosition=bottom;verticalAlign=top;align=center;html=1;shape=mxgraph.aws3.mobile_client;fillColor=#D2D3D3;gradientColor=none;" vertex="1" parent="1">
          <mxGeometry x="-480" width="40.5" height="63" as="geometry" />
        </mxCell>
        <mxCell id="A4qcPWbdOjmZHpbZ5kHx-58" style="edgeStyle=orthogonalEdgeStyle;rounded=0;orthogonalLoop=1;jettySize=auto;html=1;exitX=1;exitY=0.5;exitDx=0;exitDy=0;exitPerimeter=0;entryX=0;entryY=0.75;entryDx=0;entryDy=0;" edge="1" parent="1" source="A4qcPWbdOjmZHpbZ5kHx-49" target="A4qcPWbdOjmZHpbZ5kHx-53">
          <mxGeometry relative="1" as="geometry" />
        </mxCell>
        <mxCell id="A4qcPWbdOjmZHpbZ5kHx-63" style="edgeStyle=orthogonalEdgeStyle;rounded=0;orthogonalLoop=1;jettySize=auto;html=1;exitX=0;exitY=0.5;exitDx=0;exitDy=0;exitPerimeter=0;" edge="1" parent="1" source="A4qcPWbdOjmZHpbZ5kHx-49" target="A4qcPWbdOjmZHpbZ5kHx-61">
          <mxGeometry relative="1" as="geometry" />
        </mxCell>
        <mxCell id="A4qcPWbdOjmZHpbZ5kHx-49" value="Vuiapp.vn" style="outlineConnect=0;dashed=0;verticalLabelPosition=bottom;verticalAlign=top;align=center;html=1;shape=mxgraph.aws3.mobile_client;fillColor=#D2D3D3;gradientColor=none;" vertex="1" parent="1">
          <mxGeometry x="-480" y="100" width="40.5" height="63" as="geometry" />
        </mxCell>
        <mxCell id="A4qcPWbdOjmZHpbZ5kHx-59" style="edgeStyle=orthogonalEdgeStyle;rounded=0;orthogonalLoop=1;jettySize=auto;html=1;exitX=1;exitY=0.5;exitDx=0;exitDy=0;exitPerimeter=0;entryX=0.5;entryY=1;entryDx=0;entryDy=0;" edge="1" parent="1" source="A4qcPWbdOjmZHpbZ5kHx-50" target="A4qcPWbdOjmZHpbZ5kHx-53">
          <mxGeometry relative="1" as="geometry" />
        </mxCell>
        <mxCell id="A4qcPWbdOjmZHpbZ5kHx-68" style="edgeStyle=orthogonalEdgeStyle;rounded=0;orthogonalLoop=1;jettySize=auto;html=1;exitX=0;exitY=0.5;exitDx=0;exitDy=0;exitPerimeter=0;entryX=0.5;entryY=1;entryDx=0;entryDy=0;" edge="1" parent="1" source="A4qcPWbdOjmZHpbZ5kHx-50" target="A4qcPWbdOjmZHpbZ5kHx-61">
          <mxGeometry relative="1" as="geometry" />
        </mxCell>
        <mxCell id="A4qcPWbdOjmZHpbZ5kHx-50" value="Zalo Miniapp...." style="outlineConnect=0;dashed=0;verticalLabelPosition=bottom;verticalAlign=top;align=center;html=1;shape=mxgraph.aws3.mobile_client;fillColor=#D2D3D3;gradientColor=none;" vertex="1" parent="1">
          <mxGeometry x="-480" y="200" width="40.5" height="63" as="geometry" />
        </mxCell>
        <mxCell id="A4qcPWbdOjmZHpbZ5kHx-60" style="edgeStyle=orthogonalEdgeStyle;rounded=0;orthogonalLoop=1;jettySize=auto;html=1;exitX=1;exitY=0.5;exitDx=0;exitDy=0;entryX=0.277;entryY=0.667;entryDx=0;entryDy=0;entryPerimeter=0;" edge="1" parent="1" source="A4qcPWbdOjmZHpbZ5kHx-53" target="A4qcPWbdOjmZHpbZ5kHx-3">
          <mxGeometry relative="1" as="geometry" />
        </mxCell>
        <mxCell id="A4qcPWbdOjmZHpbZ5kHx-53" value="" style="strokeColor=#dddddd;shadow=1;strokeWidth=1;rounded=1;absoluteArcSize=1;arcSize=2;" vertex="1" parent="1">
          <mxGeometry x="-280" y="40" width="110" height="60" as="geometry" />
        </mxCell>
        <mxCell id="A4qcPWbdOjmZHpbZ5kHx-54" value="Cloud&#xa;CDN" style="editableCssRules=.*;html=1;fontColor=#999999;shape=image;verticalLabelPosition=middle;labelBackgroundColor=#ffffff;verticalAlign=middle;labelPosition=right;align=left;spacingLeft=20;part=1;points=[];imageAspect=0;image=data:image/svg+xml,PHN2ZyB4bWxucz0iaHR0cDovL3d3dy53My5vcmcvMjAwMC9zdmciIHhtbG5zOnY9Imh0dHBzOi8vdmVjdGEuaW8vbmFubyIgd2lkdGg9IjIwIiBoZWlnaHQ9IjIwIiB2aWV3Qm94PSIwIDAgMjAgMjAiPiYjeGE7CTxzdHlsZSB0eXBlPSJ0ZXh0L2NzcyI+JiN4YTsJLnN0MHtmaWxsOiM0Mjg1ZjQ7fSYjeGE7CS5zdDF7ZmlsbDojNjY5ZGY2O30mI3hhOwkuc3Qye2ZpbGw6I2FlY2JmYTt9JiN4YTsJPC9zdHlsZT4mI3hhOwk8cGF0aCBjbGFzcz0ic3QxIiBkPSJNMTMuMTMgNS42M1YzLjIxTDEwIDB2Mi40MXptMy43NSA3LjVMMjAgMTBoLTIuNWwtMy4xMiAzLjEzem0tMTMuNzUgMEwwIDEwaDIuNWwzLjEzIDMuMTN6bTEwIDEuMjV2Mi40MUwxMCAyMHYtMi40MXoiIGZpbGwtcnVsZT0iZXZlbm9kZCIvPiYjeGE7CTxwYXRoIGNsYXNzPSJzdDIiIGQ9Ik02Ljg4IDUuNjNMMTAgMi40MVYwTDYuODggMy4yMXpNMTcuNSAxMEgyMGwtMy4xMi0zLjEyaC0yLjV6bS0xNSAwSDBsMy4xMy0zLjEyaDIuNXptNC4zOCA0LjM4TDEwIDE3LjU5VjIwbC0zLjEyLTMuMjF6bTAtNy41aDYuMjV2Ni4yNUg2Ljg4eiIgZmlsbC1ydWxlPSJldmVub2RkIi8+JiN4YTsJPHBhdGggY2xhc3M9InN0MSIgZD0iTTYuODggMTMuMTNsNi4yNS02LjI1djYuMjV6IiBmaWxsLXJ1bGU9ImV2ZW5vZGQiLz4mI3hhOwk8cGF0aCBjbGFzcz0ic3QwIiBkPSJNMTAgMTBsMy4xMy0zLjEydjYuMjV6IiBmaWxsLXJ1bGU9ImV2ZW5vZGQiLz4mI3hhOzwvc3ZnPg==;" vertex="1" parent="A4qcPWbdOjmZHpbZ5kHx-53">
          <mxGeometry width="30" height="30" relative="1" as="geometry">
            <mxPoint x="15" y="15" as="offset" />
          </mxGeometry>
        </mxCell>
        <mxCell id="A4qcPWbdOjmZHpbZ5kHx-55" value="Storage Service (S3)" style="sketch=0;points=[[0,0,0],[0.25,0,0],[0.5,0,0],[0.75,0,0],[1,0,0],[0,1,0],[0.25,1,0],[0.5,1,0],[0.75,1,0],[1,1,0],[0,0.25,0],[0,0.5,0],[0,0.75,0],[1,0.25,0],[1,0.5,0],[1,0.75,0]];outlineConnect=0;fontColor=#232F3E;gradientColor=#60A337;gradientDirection=north;fillColor=#277116;strokeColor=#ffffff;dashed=0;verticalLabelPosition=bottom;verticalAlign=top;align=center;html=1;fontSize=12;fontStyle=0;aspect=fixed;shape=mxgraph.aws4.resourceIcon;resIcon=mxgraph.aws4.s3;" vertex="1" parent="1">
          <mxGeometry x="-90" y="-250" width="78" height="78" as="geometry" />
        </mxCell>
        <mxCell id="A4qcPWbdOjmZHpbZ5kHx-56" style="edgeStyle=orthogonalEdgeStyle;rounded=0;orthogonalLoop=1;jettySize=auto;html=1;exitX=0.5;exitY=0;exitDx=0;exitDy=0;exitPerimeter=0;entryX=0.5;entryY=1;entryDx=0;entryDy=0;entryPerimeter=0;" edge="1" parent="1" source="A4qcPWbdOjmZHpbZ5kHx-3" target="A4qcPWbdOjmZHpbZ5kHx-55">
          <mxGeometry relative="1" as="geometry" />
        </mxCell>
        <mxCell id="A4qcPWbdOjmZHpbZ5kHx-71" style="edgeStyle=orthogonalEdgeStyle;rounded=0;orthogonalLoop=1;jettySize=auto;html=1;exitX=0;exitY=0.25;exitDx=0;exitDy=0;entryX=1;entryY=0.5;entryDx=0;entryDy=0;" edge="1" parent="1" source="A4qcPWbdOjmZHpbZ5kHx-61" target="A4qcPWbdOjmZHpbZ5kHx-69">
          <mxGeometry relative="1" as="geometry" />
        </mxCell>
        <mxCell id="A4qcPWbdOjmZHpbZ5kHx-72" style="edgeStyle=orthogonalEdgeStyle;rounded=0;orthogonalLoop=1;jettySize=auto;html=1;exitX=0;exitY=0.75;exitDx=0;exitDy=0;entryX=1;entryY=0.5;entryDx=0;entryDy=0;" edge="1" parent="1" source="A4qcPWbdOjmZHpbZ5kHx-61" target="A4qcPWbdOjmZHpbZ5kHx-70">
          <mxGeometry relative="1" as="geometry" />
        </mxCell>
        <mxCell id="A4qcPWbdOjmZHpbZ5kHx-61" value="Customer Data Platform (Segment)" style="rounded=1;whiteSpace=wrap;html=1;" vertex="1" parent="1">
          <mxGeometry x="-760" y="102" width="120" height="60" as="geometry" />
        </mxCell>
        <mxCell id="A4qcPWbdOjmZHpbZ5kHx-69" value="Segment" style="rounded=0;whiteSpace=wrap;html=1;" vertex="1" parent="1">
          <mxGeometry x="-1030" y="30" width="120" height="60" as="geometry" />
        </mxCell>
        <mxCell id="A4qcPWbdOjmZHpbZ5kHx-70" value="Clevertap" style="rounded=0;whiteSpace=wrap;html=1;" vertex="1" parent="1">
          <mxGeometry x="-1030" y="163" width="120" height="60" as="geometry" />
        </mxCell>
        <mxCell id="A4qcPWbdOjmZHpbZ5kHx-74" value="AWS Lambda" style="sketch=0;outlineConnect=0;fontColor=#232F3E;gradientColor=none;strokeColor=#ffffff;fillColor=#232F3E;dashed=0;verticalLabelPosition=middle;verticalAlign=bottom;align=center;html=1;whiteSpace=wrap;fontSize=10;fontStyle=1;spacing=3;shape=mxgraph.aws4.productIcon;prIcon=mxgraph.aws4.lambda;" vertex="1" parent="1">
          <mxGeometry x="584" y="-250" width="80" height="100" as="geometry" />
        </mxCell>
        <mxCell id="A4qcPWbdOjmZHpbZ5kHx-76" style="edgeStyle=orthogonalEdgeStyle;rounded=0;orthogonalLoop=1;jettySize=auto;html=1;exitX=0.5;exitY=0;exitDx=0;exitDy=0;exitPerimeter=0;" edge="1" parent="1" source="A4qcPWbdOjmZHpbZ5kHx-3" target="A4qcPWbdOjmZHpbZ5kHx-74">
          <mxGeometry relative="1" as="geometry" />
        </mxCell>
        <mxCell id="A4qcPWbdOjmZHpbZ5kHx-83" value="" style="edgeStyle=orthogonalEdgeStyle;rounded=0;orthogonalLoop=1;jettySize=auto;html=1;entryX=0;entryY=0;entryDx=0;entryDy=0;entryPerimeter=0;" edge="1" parent="1" source="A4qcPWbdOjmZHpbZ5kHx-77" target="A4qcPWbdOjmZHpbZ5kHx-55">
          <mxGeometry relative="1" as="geometry" />
        </mxCell>
        <mxCell id="A4qcPWbdOjmZHpbZ5kHx-77" value="Admin Portal" style="image;aspect=fixed;html=1;points=[];align=center;fontSize=12;image=img/lib/azure2/preview/Static_Apps.svg;" vertex="1" parent="1">
          <mxGeometry x="-390" y="-390" width="116.25" height="93" as="geometry" />
        </mxCell>
        <mxCell id="A4qcPWbdOjmZHpbZ5kHx-81" value="" style="edgeStyle=orthogonalEdgeStyle;rounded=0;orthogonalLoop=1;jettySize=auto;html=1;" edge="1" parent="1" source="A4qcPWbdOjmZHpbZ5kHx-78" target="A4qcPWbdOjmZHpbZ5kHx-55">
          <mxGeometry relative="1" as="geometry" />
        </mxCell>
        <mxCell id="A4qcPWbdOjmZHpbZ5kHx-78" value="Employer Portal" style="image;aspect=fixed;html=1;points=[];align=center;fontSize=12;image=img/lib/azure2/preview/Static_Apps.svg;" vertex="1" parent="1">
          <mxGeometry x="-390" y="-556" width="120" height="96" as="geometry" />
        </mxCell>
      </root>
    </mxGraphModel>
  </diagram>
</mxfile>
